#define coffee_width 80
#define coffee_height 32
static char coffee_bits[] = {
 0x00,0x00,0x00,0x30,0x00,0x00,0x00,0x00,0x00,0x00,0x00,0x00,0x00,0x00,0x06,
 0x00,0x00,0x00,0x00,0x00,0x00,0x00,0x70,0x00,0xf8,0x07,0x00,0x00,0x00,0x00,
 0x00,0x00,0x70,0x00,0x00,0x07,0x00,0x00,0x00,0x00,0x00,0x00,0x80,0x01,0x00,
 0x07,0x00,0x00,0x00,0x00,0x00,0x00,0x00,0x0e,0xc0,0x07,0x00,0x00,0x00,0x00,
 0x00,0x00,0x00,0xf0,0x39,0x00,0x00,0x00,0x00,0x00,0x00,0x00,0x00,0xc0,0x39,
 0x00,0x00,0x00,0x00,0x00,0x00,0x00,0xf0,0xff,0xff,0xff,0x00,0x00,0x00,0x00,
 0x00,0x80,0x0f,0xc0,0xc1,0x00,0x1f,0x00,0x00,0x00,0x00,0x60,0x80,0x3f,0x3e,
 0x1f,0x60,0x00,0x00,0x00,0x00,0xe0,0xf3,0x3f,0xfe,0xff,0x7c,0x00,0x00,0x00,
 0x00,0x60,0xfc,0xff,0xf9,0xff,0xe3,0xff,0x01,0x00,0x00,0x60,0x08,0xfe,0xff,
 0x1f,0x60,0x00,0x0e,0x00,0x00,0x60,0x21,0x00,0x00,0x40,0xe2,0x7f,0x30,0x00,
 0x00,0x60,0x00,0x21,0x09,0x04,0x60,0x80,0xc1,0x01,0x00,0x60,0x00,0x04,0x40,
 0x00,0x60,0x00,0xce,0x01,0x00,0x60,0x00,0x00,0x00,0x20,0x64,0x00,0xce,0x01,
 0x00,0x60,0x12,0x00,0x00,0x01,0x60,0x00,0xce,0x01,0x00,0x60,0x40,0x20,0x09,
 0x80,0x60,0x00,0xce,0x01,0x00,0x60,0x00,0x02,0x00,0x04,0x62,0x00,0xce,0x01,
 0x00,0xe0,0x00,0x00,0x20,0x00,0x60,0x00,0xce,0x01,0x00,0x60,0x04,0x08,0x00,
 0x10,0x60,0x80,0xc1,0x01,0x00,0x60,0x40,0x40,0x82,0x00,0x64,0x70,0x34,0x00,
 0x00,0x60,0x00,0x00,0x00,0x40,0xe0,0x0f,0x0e,0x00,0x00,0x60,0x00,0x02,0x08,
 0x02,0x60,0x80,0x01,0x00,0x00,0x60,0x12,0x08,0x00,0x00,0xe2,0x7f,0x00,0x00,
 0x00,0x60,0x00,0x80,0x20,0x10,0x68,0x00,0x00,0x00,0x00,0x60,0x40,0x00,0x80,
 0x00,0x60,0x00,0x00,0x00,0x00,0x80,0x03,0x01,0x02,0x42,0x1c,0x00,0x00,0x00,
 0x00,0x00,0x7c,0x24,0x00,0xe0,0x03,0x00,0x00,0x00,0x00,0x00,0x80,0xff,0xff,
 0x1f,0x00,0x00,0x00,0x00};
