#define tick_width 80
#define tick_height 26
static char tick_bits[] = {
 0x00,0x00,0x00,0x00,0x00,0x00,0x00,0x00,0x00,0x00,0x00,0x00,0x00,0x00,0x00,
 0x00,0x00,0x00,0x60,0x03,0x92,0x24,0x49,0x92,0x24,0x49,0x92,0x24,0xbf,0x3a,
 0x00,0x00,0x00,0x00,0x00,0x00,0x00,0x40,0x81,0x0a,0x20,0x22,0x22,0x22,0x22,
 0x22,0x22,0x7a,0x7d,0x15,0x04,0x00,0x00,0x00,0x00,0x00,0x80,0x4a,0x45,0x15,
 0x10,0x11,0x11,0x11,0x11,0x11,0xb1,0xaa,0x5a,0x55,0x00,0x04,0x04,0x04,0x04,
 0x04,0xad,0xaa,0xaa,0x0a,0x44,0x40,0x40,0x40,0x40,0x60,0x55,0x55,0x55,0x03,
 0x80,0xb6,0x0d,0x01,0x01,0x54,0x55,0x55,0x55,0x20,0x10,0x95,0x6a,0x10,0x90,
 0xab,0xaa,0xaa,0x0a,0x04,0xd2,0xaa,0xaa,0x06,0xa4,0x54,0x55,0xd5,0x00,0x10,
 0xa0,0xaa,0xaa,0x2a,0xab,0xaa,0xaa,0x16,0x90,0x00,0x50,0x55,0x55,0xd5,0x54,
 0x55,0x55,0x15,0x02,0x42,0xa2,0xaa,0xaa,0x2a,0xab,0xaa,0xaa,0x02,0x08,0x08,
 0x50,0x55,0x55,0x55,0x55,0x55,0x55,0x80,0x40,0x00,0xa0,0xaa,0xaa,0xaa,0xaa,
 0x5a,0x0b,0x10,0x02,0x21,0x54,0x55,0x55,0x55,0xb5,0xaa,0x80,0x04,0x10,0x04,
 0x50,0x55,0x55,0x55,0x55,0x15,0x10,0x40,0x00,0x00,0xa0,0xaa,0xaa,0xaa,0xaa,
 0x02,0x02,0x02,0x89,0x20,0x52,0x55,0x55,0x55,0x55,0x40,0x40,0x10,0x00,0x08,
 0x80,0xaa,0xaa,0xb6,0x0a,0x08,0x08,0x40,0x20,0x01,0x08,0x54,0x55,0xd5,0x00,
 0x01,0x81,0x04,0x04,0x44,0x40,0xa0,0x5a,0x15,0x48,0x20,0x10,0x00,0x11,0x00,
 0x02,0x02,0xaa,0x02,0x01,0x04,0x02,0x22,0x80,0x10,0x10,0x88,0x00,0x00,0x20,
 0x40,0x40,0x08,0x00,0x02};
